%TF.GenerationSoftware,KiCad,Pcbnew,7.0.10*%
%TF.CreationDate,2024-05-11T20:48:23-04:00*%
%TF.ProjectId,b-clock,622d636c-6f63-46b2-9e6b-696361645f70,rev?*%
%TF.SameCoordinates,Original*%
%TF.FileFunction,Copper,L2,Bot*%
%TF.FilePolarity,Positive*%
%FSLAX46Y46*%
G04 Gerber Fmt 4.6, Leading zero omitted, Abs format (unit mm)*
G04 Created by KiCad (PCBNEW 7.0.10) date 2024-05-11 20:48:23*
%MOMM*%
%LPD*%
G01*
G04 APERTURE LIST*
%TA.AperFunction,ComponentPad*%
%ADD10C,1.400000*%
%TD*%
%TA.AperFunction,ComponentPad*%
%ADD11O,1.400000X1.400000*%
%TD*%
%TA.AperFunction,ComponentPad*%
%ADD12R,1.700000X1.700000*%
%TD*%
%TA.AperFunction,ComponentPad*%
%ADD13O,1.700000X1.700000*%
%TD*%
%TA.AperFunction,ComponentPad*%
%ADD14R,1.600000X1.600000*%
%TD*%
%TA.AperFunction,ComponentPad*%
%ADD15C,1.600000*%
%TD*%
%TA.AperFunction,ComponentPad*%
%ADD16O,1.600000X1.600000*%
%TD*%
%TA.AperFunction,Conductor*%
%ADD17C,0.250000*%
%TD*%
G04 APERTURE END LIST*
D10*
%TO.P,R2,1*%
%TO.N,Net-(U1-DIS)*%
X122783600Y-77978000D03*
D11*
%TO.P,R2,2*%
%TO.N,Net-(U1-THR)*%
X130403600Y-77978000D03*
%TD*%
D12*
%TO.P,J1,1,Pin_1*%
%TO.N,5V*%
X144653000Y-74345800D03*
D13*
%TO.P,J1,2,Pin_2*%
%TO.N,GND*%
X144653000Y-76885800D03*
%TO.P,J1,3,Pin_3*%
%TO.N,50Hz*%
X144653000Y-79425800D03*
%TD*%
D14*
%TO.P,C1,1*%
%TO.N,Net-(U1-THR)*%
X123730000Y-72517000D03*
D15*
%TO.P,C1,2*%
%TO.N,GND*%
X125730000Y-72517000D03*
%TD*%
%TO.P,C2,1*%
%TO.N,Net-(U1-CV)*%
X129413000Y-74534400D03*
%TO.P,C2,2*%
%TO.N,GND*%
X129413000Y-72034400D03*
%TD*%
D14*
%TO.P,U1,1,GND*%
%TO.N,GND*%
X133105600Y-72878600D03*
D16*
%TO.P,U1,2,TR*%
%TO.N,Net-(U1-THR)*%
X133105600Y-75418600D03*
%TO.P,U1,3,Q*%
%TO.N,50Hz*%
X133105600Y-77958600D03*
%TO.P,U1,4,R*%
%TO.N,5V*%
X133105600Y-80498600D03*
%TO.P,U1,5,CV*%
%TO.N,Net-(U1-CV)*%
X140725600Y-80498600D03*
%TO.P,U1,6,THR*%
%TO.N,Net-(U1-THR)*%
X140725600Y-77958600D03*
%TO.P,U1,7,DIS*%
%TO.N,Net-(U1-DIS)*%
X140725600Y-75418600D03*
%TO.P,U1,8,VCC*%
%TO.N,5V*%
X140725600Y-72878600D03*
%TD*%
D10*
%TO.P,R1,1*%
%TO.N,Net-(U1-DIS)*%
X122834400Y-80492600D03*
D11*
%TO.P,R1,2*%
%TO.N,5V*%
X130454400Y-80492600D03*
%TD*%
D17*
%TO.N,Net-(U1-THR)*%
X126568200Y-76352400D02*
X126034800Y-76352400D01*
X130403600Y-77978000D02*
X128778000Y-76352400D01*
X123730000Y-74047600D02*
X123730000Y-72517000D01*
X126034800Y-76352400D02*
X123730000Y-74047600D01*
X128778000Y-76352400D02*
X126568200Y-76352400D01*
%TO.N,GND*%
X128930400Y-72517000D02*
X129413000Y-72034400D01*
X132261400Y-72034400D02*
X133105600Y-72878600D01*
X129413000Y-72034400D02*
X132261400Y-72034400D01*
X125730000Y-72517000D02*
X128930400Y-72517000D01*
%TO.N,Net-(U1-CV)*%
X135001000Y-76708000D02*
X138791600Y-80498600D01*
X131586600Y-76708000D02*
X135001000Y-76708000D01*
X129413000Y-74534400D02*
X131586600Y-76708000D01*
X138791600Y-80498600D02*
X140725600Y-80498600D01*
%TD*%
M02*
